<?xml version="1.0" encoding="utf-8"?>
<!-- Generator: Adobe Illustrator 15.0.0, SVG Export Plug-In . SVG Version: 6.00 Build 0)  -->
<!DOCTYPE svg PUBLIC "-//W3C//DTD SVG 1.1//EN" "http://www.w3.org/Graphics/SVG/1.1/DTD/svg11.dtd">
<svg version="1.1" id="svg20392" xmlns:svg="http://www.w3.org/2000/svg"
	 xmlns="http://www.w3.org/2000/svg" xmlns:xlink="http://www.w3.org/1999/xlink" x="0px" y="0px" width="708.07px" height="378px"
	 viewBox="0 0 708.07 378" enable-background="new 0 0 708.07 378" xml:space="preserve">
<g id="layer1" transform="translate(-51.71981,-373.8594)">
	<g id="g20441" transform="translate(17.71655,17.66165)">
		<path id="path13762" fill="#FFFFFF" d="M688.456,599.26c-8.871-4.633-10.25-17.721-10.053-49.557l0.195-48.789l-16.951-0.02
			l3.939-9.029h13.012v-23.103l31.146-11.552v33.886l14.391,0.021l-3.746,10.014l-10.645-0.021v84.429
			c0.592,6.801,2.957,10.802,6.111,13.72H688.456"/>
		<path id="path13766" fill="#FFFFFF" d="M381.532,390.645c2.365,6.524,7.885,13.267,3.941,20.836
			c-1.773,7.688-9.066,13.916-16.756,15.158c-8.082,0.729-15.57-0.631-21.684-5.5c-4.139-22.195,4.93-42.736,22.473-54.978
			L381.532,390.645"/>
		<g>
			<g id="g13772" transform="matrix(19.71242,0,0,-19.71242,-3374.102,1993.491)">
				<path id="path13774" fill="#FFFFFF" d="M192.091,77.881c-0.2-0.681-2.21-0.234-2.84,0.884c0.83-0.092,1.76,0.642,1.78,1.479
					L192.091,77.881"/>
			</g>
		</g>
		<g>
			<g id="g13780" transform="matrix(19.71242,0,0,-19.71242,-3374.102,1993.491)">
				<path id="path13782" fill="#FFFFFF" d="M192.921,77.969c0.09,0.041,0.27,0.133,0.32,0.33l-2.16,4.698
					c-0.15,0.018-0.25,0.031-0.44-0.1L192.921,77.969"/>
			</g>
		</g>
		<path id="path13784" fill="#FFFFFF" d="M447.964,436.436c18.137-27.498,2.957-72.621-36.27-78.947L447.964,436.436"/>
		<path id="path13790" fill="#FFFFFF" d="M444.023,495.632c5.717-4.81,15.77-4.908,22.275-1.833c2.76,1.381,5.322,3.213,7.096,5.618
			l-12.615,19.556c-1.578-1.263-2.76-1.834-4.732-2.858c-6.307-2.7-12.811-1.124-16.559,2.286v57.067
			c-0.195,9.877,1.578,18.886,6.703,23.558h-28.584c-6.109-4.573-7.49-11.888-8.082-18.293l-0.195-75.894
			c0.195-6.149-1.381-8.851-3.746-12.3l29.568,0.118c2.365,1.715,2.562,4.691,3.746,6.978L444.023,495.632"/>
		<path id="path13792" fill="#FFFFFF" d="M480.097,514.399c-0.197-7.215,1.379-15.85-3.352-22.079h27.4
			c1.971,1.38,2.955,3.667,3.547,5.834c1.578,1.932,1.381,4.691,1.973,6.979l0.395,80.861c0.984,4.809,2.955,9.658,6.504,13.443
			l-29.371,0.059c-9.66-9.304-6.506-24.601-7.293-40.391L480.097,514.399"/>
		<path id="path13794" fill="#FFFFFF" d="M523.661,515.188c2.955-8.221,12.221-12.34,18.924-16.814
			c10.25-3.766,21.684-13.149,33.115-5.481c9.66,6.29,18.137,13.386,24.246,23.104c1.381,3.766,2.17,8.003,3.152,12.005
			c0,5.381,1.186,9.383,0.986,14.764c0.396,5.837,0.396,11.1,0,16.815c-0.395,9.718-4.928,18.411-12.615,25.153
			c-11.434,10.19-25.822,21.741-41.395,13.838c-13.996-6.525-30.357-19.438-29.371-37.178c-0.592-12.576-1.186-23.438,0.59-35.681
			C521.886,522.166,521.689,518.283,523.661,515.188z M552.243,572.374c1.381,5.045,3.941,11.215,10.053,11.906
			c3.549,0.117,6.111-2.859,8.279-5.383c6.309-12.576,5.322-26.297,5.322-40.607c-1.973-10.625,0.592-25.152-10.844-31.677
			c-4.139-1.479-7.096,1.261-9.656,3.784c-4.533,6.742-4.93,14.47-5.322,23.045C548.695,547.162,550.273,558.536,552.243,572.374"/>
		<path id="path13796" fill="#FFFFFF" d="M624.392,599.26c-8.871-4.633-10.252-17.721-10.055-49.557l0.197-48.789l-16.756-0.02
			l3.746-9.029h13.01v-23.103l31.344-11.552v33.886l14.191,0.021l-3.744,10.014l-10.447-0.021v84.429
			c0.59,6.801,2.957,10.802,6.109,13.72H624.392"/>
		<path id="path13798" fill="#FFFFFF" d="M338.954,504.838c-0.197-6.15-1.379-8.852-3.744-12.3l29.568,0.118
			c2.363,1.715,2.561,4.692,3.746,6.978l5.125-4.001c5.717-4.81,15.77-4.909,22.273-1.833c2.76,1.38,5.322,3.214,7.098,5.618
			l-12.617,19.555c-1.576-1.262-2.758-1.832-4.73-2.857c-6.307-2.7-12.812-1.124-16.559,2.287v57.066
			c-0.197,9.877,1.578,18.886,6.703,23.558h-28.584c-5.912-4.573-7.688-11.374-8.082-18.293L338.954,504.838"/>
		<path id="path13800" fill="#FFFFFF" d="M114.825,534.861l-10.645,22.155c-7.49,13.07-17.741,29.097-33.511,33.078
			c-6.111,2.129-11.63,0.197-17.544-0.217l-19.121,31.244c1.577,1.537,3.548,2.818,5.52,3.568
			c33.511,12.812,47.112-0.968,80.032-75.696l31.343,66.569h41.593l-19.712-44.926l11.235-23.222l30.751,67.121l39.819,0.256
			l-69.782-153.125l-32.131,15.947l25.232,57.147l-11.039,22.451l-46.127-99.508l-33.708,17.229L114.825,534.861"/>
		<path id="path13802" fill="#FFFFFF" d="M242.757,561.867c0.789-11.099,6.9-21.506,17.15-27.104
			c10.25-6.309,22.078-8.812,32.723-14.312c1.773-1.479,3.943-3.312,4.141-5.716c0.195-2.978-1.381-5.264-3.943-6.289
			c-16.164-3.43-29.373,6.623-41.002,16.578c1.379-7.313,2.562-15.316,6.111-22.176c1.576-1.834,2.76-4.356,4.928-5.718
			c11.434-5.619,25.627-7.214,38.242-6.308c10.447,0.689,20.107,8.122,23.654,17.624c1.773,4.455,1.578,9.5,1.973,14.074
			l0.195,61.996c0,5.361,2.562,10.408,5.719,14.744h-29.57c-3.547-3.192-5.322-7.215-6.307-12.241
			c-8.279,7.333-25.627,18.194-35.879,10.979C250.249,593.209,240.392,577.066,242.757,561.867z M295.193,540.301
			c-0.197-4.298-3.154-4.752-5.322-4.752c-7.096,1.025-13.207,6.959-16.756,13.051c-2.957,5.42-3.744,9.994-3.941,14.744
			c0,5.125-0.395,8.931,1.773,12.813c1.184,2.521,3.549,3.667,6.109,4.337c4.535,0.926,8.676-0.336,12.223-2.74
			c8.477-4.69,6.898-14.074,7.096-22.413L295.193,540.301"/>
		<path id="path13842" fill="#FFFFFF" d="M719.603,589.976c0-6.348,5.125-11.02,11.234-11.02c6.111,0,11.236,4.672,11.236,11.02
			c0,6.388-5.125,11.06-11.236,11.06C724.728,601.036,719.603,596.364,719.603,589.976z M730.837,599.203
			c5.127,0,9.068-3.903,9.068-9.227c0-5.224-3.941-9.187-9.068-9.187c-4.928,0-9.066,3.963-9.066,9.187
			C721.771,595.298,725.909,599.203,730.837,599.203z M728.472,596.364h-1.773v-12.734h4.73c2.957,0,4.535,1.124,4.535,3.628
			c0,2.286-1.381,3.271-3.352,3.508l3.744,5.6h-2.17l-3.352-5.521h-2.365v5.52H728.472z M730.837,589.208
			c1.578,0,3.154-0.119,3.154-2.07c0-1.576-1.379-1.873-2.76-1.873h-2.762v3.943H730.837"/>
	</g>
</g>
</svg>
