<?xml version="1.0" encoding="utf-8"?>
<!-- Generator: Adobe Illustrator 15.0.0, SVG Export Plug-In . SVG Version: 6.00 Build 0)  -->
<!DOCTYPE svg PUBLIC "-//W3C//DTD SVG 1.1//EN" "http://www.w3.org/Graphics/SVG/1.1/DTD/svg11.dtd">
<svg version="1.1" id="Layer_2" xmlns="http://www.w3.org/2000/svg" xmlns:xlink="http://www.w3.org/1999/xlink" x="0px" y="0px"
	 width="124.674px" height="127.167px" viewBox="0 0 124.674 127.167" enable-background="new 0 0 124.674 127.167"
	 xml:space="preserve">
<path fill="#FFFFFF" d="M63.109,62.279"/>
<g>
	<circle fill="none" stroke="#FFFFFF" stroke-width="0.78" cx="62.579" cy="62.299" r="49.913"/>
	<path fill="none" stroke="#FFFFFF" d="M62.581,62.297"/>
</g>
<g>
	<path fill="#FFFFFF" stroke="#FFFFFF" stroke-width="0.062" d="M52.868,101.068l-0.754,0.013l-1.145-0.013
		c-0.104,0-0.441,0-1.001,0.013h-0.194c-0.26,0-0.364-0.013-0.664-0.026l0.027-0.247h0.831c0.39,0,0.481-0.091,0.533-0.533
		l0.364-3.536c0.013-0.078,0.013-0.143,0.013-0.182c0-0.195-0.039-0.221-0.272-0.26l-0.234-0.039h-0.741l0.026-0.273h1.027
		c0.493,0,0.832-0.13,1.014-0.403h0.143l-0.507,4.797v0.052c0,0.039,0,0.078,0.013,0.117c0.014,0.13,0.026,0.208,0.053,0.221
		c0.013,0.026,0.104,0.039,0.246,0.039h0.403h0.845L52.868,101.068z"/>
	<path fill="#FFFFFF" stroke="#FFFFFF" stroke-width="0.062" d="M55.655,104.513c-0.559,0-1.014-0.156-1.014-0.325
		c0-0.078,0.039-0.143,0.104-0.143c0.025,0,0.078,0.013,0.13,0.026l0.117,0.026c0.091,0.026,0.26,0.039,0.416,0.039
		c1.755,0,3.405-2.015,3.601-4.407c-0.429,0.832-1.17,1.313-2.015,1.313c-1.209,0-2.041-0.949-2.041-2.34
		c0-1.742,1.196-3.107,2.729-3.107c1.508,0,2.432,1.157,2.432,3.029C60.114,101.667,57.956,104.513,55.655,104.513z M57.488,95.934
		c-0.91,0-1.625,0.975-1.625,2.223c0,1.313,0.663,2.249,1.586,2.249c0.832,0,1.521-0.767,1.586-1.794
		c0.013-0.065,0.013-0.13,0.013-0.195C59.048,96.947,58.411,95.934,57.488,95.934z"/>
	<path fill="#FFFFFF" stroke="#FFFFFF" stroke-width="0.062" d="M67.164,99.82c-0.586,0.91-1.354,1.3-2.613,1.378h-0.117
		c-1.43,0-2.378-0.936-2.378-2.327c0-0.325,0.051-0.689,0.182-1.04c0.143-0.468,0.338-0.832,0.558-1.092
		c0.508-0.585,1.496-1.001,2.418-1.001c1.508,0,2.457,0.923,2.457,2.392C67.67,98.729,67.502,99.313,67.164,99.82z M64.939,96.115
		c-1.391,0-2.209,0.962-2.209,2.587c0,1.339,0.584,2.028,1.846,2.145c0.092,0.013,0.182,0.013,0.273,0.013
		c1.273,0,2.17-1.131,2.17-2.743C67.02,96.908,66.201,96.115,64.939,96.115z"/>
	<path fill="#FFFFFF" stroke="#FFFFFF" stroke-width="0.062" d="M72.914,101.068l-0.754,0.013l-1.145-0.013
		c-0.104,0-0.441,0-1,0.013H69.82c-0.26,0-0.363-0.013-0.664-0.026l0.027-0.247h0.832c0.389,0,0.48-0.091,0.533-0.533l0.363-3.536
		c0.014-0.078,0.014-0.143,0.014-0.182c0-0.195-0.039-0.221-0.273-0.26l-0.234-0.039h-0.74l0.025-0.273h1.027
		c0.494,0,0.832-0.13,1.014-0.403h0.143l-0.506,4.797v0.052c0,0.039,0,0.078,0.012,0.117c0.014,0.13,0.027,0.208,0.053,0.221
		c0.014,0.026,0.104,0.039,0.246,0.039h0.404h0.844L72.914,101.068z"/>
</g>
<g>
	<g>
		<g>
			<path fill="#FFFFFF" d="M37.64,110.155c0.099,0.152,0.09,0.193-0.066,0.462c-0.285,0.49-0.562,0.86-0.668,1.017
				c-0.062,0.105-0.119,0.149-0.178,0.115c-0.059-0.033-0.072-0.089-0.025-0.17c0.048-0.082,0.129-0.223,0.176-0.383
				c0.258-0.818-0.363-1.523-1.053-1.924c-1.016-0.59-1.873-0.324-2.307,0.424c-0.414,0.711-0.227,1.273,0.291,2.48l0.264,0.621
				c0.627,1.473,0.635,2.291,0.234,2.979c-0.678,1.168-2.008,1.332-3.361,0.545c-0.408-0.238-0.783-0.533-0.994-0.734
				c-0.171-0.162-0.252-0.209-0.334-0.257s-0.099-0.073-0.064-0.132c0.027-0.046,0.264-0.346,0.657-1.022
				c0.089-0.151,0.141-0.216,0.21-0.175c0.07,0.041,0.055,0.095,0.02,0.184c-0.057,0.123-0.131,0.439-0.133,0.578
				c0.002,0.157,0.123,0.728,1.045,1.264c0.746,0.434,1.582,0.42,1.99-0.279c0.365-0.631,0.262-1.176-0.354-2.455l-0.177-0.367
				c-0.753-1.578-0.785-2.519-0.29-3.37c0.34-0.583,0.928-1.085,1.941-1.136c0.595-0.029,1.277,0.273,1.838,0.6
				C36.78,109.296,37.335,109.712,37.64,110.155z"/>
			<path fill="#FFFFFF" d="M30.426,106.775c0.284,1.505-0.312,2.705-0.994,3.56c-0.48,0.602-1.536,1.469-2.999,1.613
				c-0.988,0.092-2.17-0.16-3.594-1.297c-0.369-0.295-0.871-0.748-1.266-1.185c-0.298-0.341-0.543-0.64-0.84-0.896
				c-0.096-0.076-0.082-0.135-0.041-0.188c0.06-0.074,0.164-0.162,0.447-0.473c0.246-0.287,0.643-0.783,0.754-0.9
				c0.12-0.129,0.204-0.148,0.257-0.105c0.063,0.051,0.023,0.122-0.077,0.248c-0.278,0.349-0.418,0.825-0.326,1.209
				c0.107,0.535,0.605,1.296,1.43,1.953c1.191,0.951,2.014,1.09,2.585,1.045c1.191-0.085,1.979-0.77,2.704-1.676
				c1.373-1.72,1.233-4.336-0.75-5.92c-0.696-0.556-1.203-0.874-1.867-0.799c-0.359,0.041-0.789,0.319-0.956,0.462
				c-0.097,0.078-0.133,0.102-0.196,0.051c-0.042-0.034-0.033-0.13,0.018-0.194c0.05-0.063,0.8-0.743,1.139-0.973
				c0.188-0.126,0.234-0.141,0.443-0.078c0.498,0.155,1.236,0.659,1.837,1.139C29.525,104.484,30.203,105.561,30.426,106.775z"/>
			<path fill="#FFFFFF" d="M21.024,101.422c0.799-0.767,1.451-1.393,1.755-1.759c0.216-0.263,0.343-0.442,0.14-0.732
				c-0.103-0.146-0.261-0.349-0.336-0.427c-0.047-0.049-0.025-0.106,0.004-0.134c0.038-0.038,0.105-0.026,0.198,0.071
				c0.458,0.478,0.962,1.061,0.999,1.1c0.047,0.048,0.59,0.556,0.843,0.819c0.084,0.088,0.111,0.155,0.063,0.202
				c-0.029,0.028-0.088,0.046-0.135-0.003c-0.074-0.078-0.197-0.167-0.291-0.226c-0.197-0.128-0.382-0.008-0.653,0.197
				c-0.378,0.288-1.04,0.905-1.839,1.671l-1.461,1.402c-1.285,1.234-1.52,1.458-1.764,1.73c-0.264,0.29-0.324,0.48-0.186,0.702
				c0.074,0.117,0.167,0.232,0.223,0.291c0.037,0.039,0.027,0.105-0.002,0.135c-0.049,0.046-0.105,0.025-0.199-0.071
				c-0.271-0.282-0.766-0.837-0.812-0.886c-0.037-0.039-0.59-0.575-0.842-0.838c-0.094-0.097-0.111-0.155-0.063-0.202
				c0.029-0.028,0.105-0.026,0.134,0.002c0.057,0.059,0.112,0.117,0.225,0.196c0.273,0.187,0.438,0.124,0.748-0.138
				c0.272-0.243,0.506-0.467,1.791-1.701L21.024,101.422z"/>
			<path fill="#FFFFFF" d="M16.661,99.538c-1.413,1.085-1.67,1.282-1.943,1.525c-0.293,0.26-0.402,0.429-0.207,0.772
				c0.047,0.083,0.16,0.252,0.225,0.338c0.025,0.032,0.016,0.107-0.018,0.132c-0.053,0.041-0.107,0.015-0.189-0.092
				c-0.328-0.429-0.775-1.056-0.816-1.109c-0.05-0.064-1.551-2.043-1.727-2.249c-0.15-0.174-0.314-0.321-0.382-0.387
				c-0.044-0.035-0.108-0.053-0.142-0.096c-0.025-0.032,0.01-0.076,0.053-0.109c0.064-0.049,0.213-0.078,0.486-0.253
				c0.094-0.055,0.518-0.346,0.641-0.407c0.051-0.022,0.129-0.031,0.162,0.012c0.041,0.053,0.015,0.108-0.061,0.165
				c-0.064,0.049-0.206,0.175-0.28,0.3c-0.101,0.179-0.091,0.325,0.239,0.888c0.102,0.177,0.93,1.278,1.012,1.385
				c0.033,0.043,0.073,0.029,0.138-0.02l2.474-1.899c0.064-0.049,0.097-0.074,0.056-0.127c-0.091-0.118-1.044-1.36-1.229-1.558
				c-0.194-0.208-0.312-0.34-0.482-0.362c-0.113-0.015-0.199-0.017-0.225-0.049c-0.024-0.032-0.02-0.07,0.034-0.111
				s0.245-0.103,0.562-0.311c0.197-0.119,0.557-0.36,0.621-0.409c0.075-0.058,0.188-0.11,0.237-0.046
				c0.032,0.042,0.017,0.089-0.036,0.13c-0.086,0.066-0.182,0.14-0.268,0.273c-0.104,0.131-0.145,0.298,0.092,0.696
				c0.165,0.281,0.927,1.296,1.051,1.457c0.041,0.054,0.081,0.04,0.113,0.015l0.76-0.583c0.311-0.239,1.379-1.042,1.553-1.192
				c0.595-0.49,0.581-0.751-0.135-1.684c-0.188-0.246-0.533-0.696-0.818-0.868c-0.297-0.164-0.557-0.169-0.961,0.056
				c-0.124,0.061-0.172,0.064-0.214,0.011c-0.041-0.054,0.026-0.122,0.091-0.171c0.063-0.049,0.742-0.451,0.977-0.545
				c0.285-0.116,0.358-0.02,0.639,0.344c0.541,0.707,0.939,1.27,1.225,1.663c0.283,0.413,0.472,0.659,0.578,0.798
				c0.018,0.021,0.156,0.204,0.323,0.399c0.151,0.174,0.325,0.38,0.44,0.53c0.074,0.096,0.094,0.166,0.041,0.207
				c-0.033,0.025-0.092,0.036-0.133-0.017c-0.066-0.086-0.188-0.179-0.266-0.256c-0.172-0.157-0.369-0.039-0.67,0.124
				c-0.416,0.234-1.134,0.785-2.012,1.458L16.661,99.538z"/>
			<path fill="#FFFFFF" d="M15.065,90.775c0.823-0.465,1.023-0.693,0.943-1.018c-0.053-0.216-0.167-0.461-0.217-0.557
				c-0.025-0.048-0.009-0.103,0.039-0.128c0.06-0.031,0.121,0.027,0.184,0.147c0.316,0.597,0.501,1.033,0.551,1.129
				c0.051,0.096,0.32,0.518,0.572,0.996c0.057,0.107,0.076,0.173,0.005,0.211c-0.048,0.025-0.103,0.008-0.128-0.04
				c-0.044-0.083-0.156-0.268-0.287-0.398c-0.209-0.225-0.504-0.116-1.422,0.37l-5.813,3.071c-0.405,0.215-0.545,0.212-0.589,0.128
				c-0.062-0.119,0.045-0.405,0.096-0.569c0.079-0.256,0.895-2.641,1.709-5.147c0.525-1.606,1.139-3.365,1.302-3.864L6.981,87.9
				c-0.65,0.359-0.846,0.538-0.734,0.892c0.064,0.21,0.18,0.455,0.223,0.539c0.039,0.071-0.016,0.115-0.051,0.134
				c-0.06,0.032-0.115-0.045-0.179-0.165c-0.253-0.478-0.493-0.991-0.556-1.111c-0.063-0.119-0.271-0.453-0.498-0.882
				c-0.057-0.107-0.088-0.197-0.029-0.229c0.036-0.019,0.121-0.002,0.159,0.069c0.024,0.048,0.069,0.131,0.156,0.238
				c0.255,0.308,0.47,0.225,1.079-0.097l5.957-3.117c0.668-0.354,0.734-0.373,0.771-0.301c0.057,0.107,0.03,0.259-0.197,1.128
				c-0.039,0.158-0.73,2.462-1.302,4.184c-0.634,1.893-1.251,3.73-1.438,4.241L15.065,90.775z"/>
			<path fill="#FFFFFF" d="M7.902,78.719c1.058-0.329,1.921-0.597,2.356-0.789c0.31-0.139,0.5-0.255,0.443-0.619
				c-0.022-0.163-0.076-0.429-0.109-0.532c-0.023-0.077,0.023-0.106,0.062-0.118c0.052-0.016,0.106,0.023,0.146,0.152
				c0.192,0.619,0.379,1.353,0.398,1.417c0.016,0.052,0.299,0.826,0.403,1.161c0.04,0.129,0.03,0.188-0.034,0.208
				c-0.039,0.012-0.085-0.001-0.105-0.066c-0.031-0.104-0.098-0.224-0.156-0.319c-0.123-0.216-0.362-0.212-0.696-0.151
				c-0.468,0.089-1.331,0.357-2.388,0.686l-4.603,1.431l0.534,1.629c0.234,0.705,0.396,0.952,0.705,1.039
				c0.234,0.069,0.315,0.058,0.404,0.072c0.099-0.002,0.123,0.032,0.14,0.084c0.008,0.026-0.002,0.085-0.066,0.105
				c-0.116,0.036-1.168,0.108-1.263,0.124c-0.072-0.005-0.229-0.013-0.242-0.052c-0.023-0.077,0.031-0.221-0.027-0.543
				c-0.061-0.334-0.185-0.776-0.225-0.905l-1.331-4.28c-0.116-0.374-0.222-0.624-0.304-0.796C1.868,77.5,1.81,77.404,1.794,77.353
				c-0.016-0.051,0.049-0.071,0.113-0.091c0.335-0.104,1.133-0.311,1.262-0.351c0.091-0.028,0.158,0.008,0.174,0.059
				c0.017,0.052-0.014,0.089-0.164,0.15l-0.113,0.049c-0.322,0.143-0.491,0.464-0.18,1.555L3.3,80.15L7.902,78.719z"/>
			<path fill="#FFFFFF" d="M6.294,71.812c1.09-0.194,1.98-0.352,2.437-0.488c0.325-0.099,0.53-0.177,0.522-0.532
				c-0.004-0.178-0.022-0.435-0.041-0.541c-0.012-0.066,0.036-0.103,0.076-0.11c0.053-0.009,0.102,0.037,0.126,0.169
				c0.116,0.651,0.21,1.416,0.22,1.469c0.012,0.066,0.182,0.791,0.246,1.149c0.021,0.12,0.006,0.191-0.061,0.203
				c-0.039,0.007-0.098-0.01-0.109-0.077c-0.019-0.106-0.071-0.248-0.117-0.349C9.5,72.49,9.28,72.488,8.94,72.507
				c-0.475,0.03-1.367,0.175-2.457,0.369L4.489,73.23C2.735,73.542,2.416,73.6,2.062,73.69c-0.381,0.095-0.537,0.219-0.545,0.481
				c-0.003,0.137,0.01,0.286,0.023,0.366c0.01,0.053-0.036,0.103-0.076,0.109c-0.066,0.012-0.102-0.037-0.126-0.169
				c-0.068-0.385-0.172-1.121-0.184-1.188c-0.01-0.053-0.171-0.806-0.235-1.165c-0.023-0.133-0.006-0.191,0.061-0.203
				c0.04-0.007,0.103,0.037,0.109,0.077c0.015,0.08,0.029,0.159,0.079,0.288c0.123,0.307,0.294,0.345,0.698,0.301
				c0.361-0.05,0.68-0.107,2.434-0.419L6.294,71.812z"/>
			<path fill="#FFFFFF" d="M0.456,65.213C0.073,65.081,0.003,65.029,0,64.948c-0.005-0.121,0.155-0.168,0.406-0.3
				c0.478-0.236,5.133-2.333,6.843-3.133c1.008-0.474,1.143-0.804,1.213-1.063c0.047-0.178,0.053-0.354,0.048-0.475
				c-0.003-0.067,0.021-0.149,0.089-0.152c0.066-0.003,0.1,0.131,0.105,0.266c0.007,0.175,0.043,1.052,0.05,1.876
				c-0.004,0.23,0.004,0.419-0.063,0.421c-0.055,0.002-0.055-0.024-0.084-0.078c-0.03-0.066-0.13-0.184-0.314-0.095l-2.587,1.174
				C5.652,63.418,5.64,63.432,5.642,63.5l0.113,2.738c0.002,0.054,0.031,0.093,0.1,0.117l1.862,0.599
				c0.288,0.096,0.573,0.152,0.776,0.144c0.229-0.01,0.301-0.215,0.293-0.417l-0.004-0.108c-0.004-0.095,0.035-0.123,0.089-0.125
				c0.067-0.003,0.097,0.063,0.103,0.171c0.012,0.283-0.003,0.933,0.003,1.067c0.005,0.122,0.069,0.713,0.09,1.199
				c0.007,0.148-0.018,0.23-0.085,0.233c-0.054,0.002-0.097-0.05-0.099-0.104c-0.003-0.081-0.024-0.256-0.042-0.35
				c-0.09-0.537-0.504-0.75-1.093-0.955L0.456,65.213z M5.177,63.694c-0.002-0.054-0.029-0.053-0.082-0.037L2,64.96
				c-0.173,0.075-0.169,0.142,0.009,0.202l3.188,0.977c0.055,0.011,0.082-0.003,0.08-0.044L5.177,63.694z"/>
			<path fill="#FFFFFF" d="M5.724,46.016c-1.696-0.544-2.005-0.643-2.36-0.728c-0.381-0.094-0.581-0.087-0.753,0.269
				c-0.041,0.086-0.115,0.274-0.148,0.377c-0.013,0.039-0.08,0.073-0.119,0.061c-0.064-0.021-0.074-0.08-0.032-0.209
				c0.165-0.514,0.417-1.213,0.446-1.303c0.078-0.244,0.324-1.101,0.488-1.615c0.467-1.453,1.081-1.823,1.311-1.962
				c0.313-0.183,0.9-0.335,1.492-0.146c1.568,0.502,2.23,2.019,1.674,3.755c-0.02,0.064-0.082,0.257-0.115,0.317
				c-0.017,0.052-0.089,0.1-0.141,0.083c-0.09-0.029-0.095-0.102-0.021-0.333c0.392-1.221-0.1-2.343-1.089-2.66
				c-0.361-0.116-1.08-0.304-1.865,0.111c-0.781,0.402-0.936,1.104-1.018,1.361c-0.062,0.193-0.113,0.531-0.125,0.654
				c-0.008,0.068,0.062,0.119,0.178,0.156l4.447,1.425c1.055,0.338,1.916,0.614,2.383,0.707c0.334,0.064,0.56,0.066,0.723-0.265
				c0.074-0.146,0.179-0.382,0.212-0.485c0.021-0.064,0.08-0.074,0.118-0.061c0.052,0.016,0.074,0.08,0.033,0.208
				c-0.198,0.617-0.476,1.351-0.492,1.402c-0.012,0.039-0.209,0.784-0.32,1.131c-0.037,0.116-0.083,0.172-0.147,0.151
				c-0.038-0.013-0.081-0.055-0.062-0.119c0.033-0.103,0.053-0.252,0.061-0.363c0.019-0.235-0.18-0.327-0.484-0.481
				c-0.429-0.208-1.29-0.484-2.344-0.822L5.724,46.016z"/>
			<path fill="#FFFFFF" d="M8.474,38.371c-1.598-0.789-1.889-0.932-2.228-1.069c-0.363-0.149-0.562-0.172-0.784,0.155
				c-0.055,0.079-0.156,0.254-0.203,0.352c-0.018,0.036-0.091,0.061-0.127,0.043c-0.061-0.03-0.061-0.09-0.001-0.211
				c0.239-0.484,0.615-1.187,0.646-1.247c0.054-0.109,0.471-1.017,0.633-1.344c0.334-0.678,0.766-1.398,1.428-1.765
				c0.324-0.17,1.055-0.398,1.769-0.045c0.763,0.376,1.346,1.056,1.704,2.466c1.52-0.334,2.815-0.612,3.762-0.914
				c0.861-0.282,1.132-0.585,1.3-0.834c0.138-0.188,0.191-0.297,0.222-0.357c0.029-0.061,0.096-0.073,0.133-0.055
				c0.061,0.03,0.055,0.102-0.041,0.296l-0.328,0.666c-0.299,0.605-0.491,0.842-0.768,1.036c-0.469,0.341-1.156,0.483-2.23,0.707
				c-0.777,0.173-1.677,0.316-2.068,0.409c-0.072,0.024-0.097,0.043-0.133,0.115l-0.693,1.344c-0.023,0.048-0.012,0.084,0.049,0.114
				l0.242,0.12c0.993,0.49,1.792,0.884,2.24,1.044c0.32,0.113,0.544,0.148,0.754-0.155c0.096-0.133,0.232-0.352,0.281-0.448
				c0.035-0.073,0.09-0.061,0.127-0.043c0.048,0.024,0.061,0.09,0,0.211c-0.286,0.581-0.657,1.241-0.682,1.29
				c-0.006,0.012-0.321,0.744-0.482,1.071c-0.055,0.109-0.107,0.157-0.168,0.127c-0.037-0.018-0.074-0.066-0.043-0.126
				c0.047-0.097,0.088-0.242,0.112-0.351c0.054-0.23-0.129-0.35-0.407-0.547c-0.395-0.27-1.205-0.67-2.198-1.16L8.474,38.371z
				 M9.799,37.88c0.061,0.03,0.108,0.024,0.169-0.007c0.162-0.115,0.504-0.625,0.736-1.097c0.126-0.254,0.258-0.551,0.213-0.889
				c-0.062-0.482-0.47-1.03-1.257-1.418c-1.283-0.633-2.368-0.295-2.93,0.843c-0.155,0.314-0.286,0.671-0.315,0.792
				c0,0.06,0.019,0.115,0.078,0.145L9.799,37.88z"/>
			<path fill="#FFFFFF" d="M12.446,24.836c1.602-2.14,4.123-2.783,6.264-1.182c2.053,1.537,2.609,4.331,0.895,6.623
				c-1.949,2.604-4.738,2.254-6.393,1.017C11.731,30.186,10.481,27.463,12.446,24.836z M19.429,29.724
				c0.639-0.854,1.471-2.912-1.188-4.902c-2.205-1.65-4.365-1.175-5.488,0.327c-1.189,1.589-1.053,3.479,0.947,4.975
				C15.841,31.726,18.144,31.442,19.429,29.724z"/>
			<path fill="#FFFFFF" d="M29.931,12.989c-0.933-1.518-1.103-1.794-1.316-2.091c-0.229-0.319-0.398-0.468-0.76-0.309
				c-0.088,0.038-0.268,0.133-0.359,0.189c-0.035,0.021-0.096,0.027-0.116-0.008c-0.035-0.058-0.003-0.109,0.111-0.18
				c0.46-0.283,1.13-0.663,1.188-0.698c0.241-0.148,0.699-0.461,1.171-0.751c1.69-1.039,2.729-0.33,3.047,0.188
				c0.473,0.771,0.264,1.564,0.029,2.343c0.912-0.244,2.355-0.164,3.033,0.94c0.672,1.092,0.52,2.675-1.206,3.736
				c-0.185,0.113-0.56,0.328-0.896,0.502c-0.328,0.187-0.623,0.352-0.67,0.38c-0.022,0.014-0.199,0.139-0.406,0.266
				c-0.2,0.139-0.435,0.298-0.596,0.397c-0.104,0.063-0.176,0.076-0.211,0.019c-0.021-0.035-0.012-0.072,0.045-0.107
				c0.093-0.057,0.197-0.169,0.283-0.237c0.174-0.154,0.062-0.387-0.068-0.703c-0.189-0.438-0.663-1.208-1.242-2.151L29.931,12.989z
				 M30.933,12.659c0.042,0.069,0.079,0.078,0.133,0.061c0.064-0.023,0.27-0.102,0.648-0.335c0.564-0.346,0.768-0.503,0.834-0.861
				c0.07-0.376,0.037-0.815-0.252-1.287c-0.459-0.748-1.383-1.321-2.395-0.699c-0.115,0.071-0.35,0.23-0.489,0.364
				c-0.078,0.08-0.099,0.124-0.063,0.182L30.933,12.659z M31.597,13.74c0.467,0.759,1.188,1.932,1.291,2.075
				c0.324,0.45,0.395,0.565,0.797,0.524c0.354-0.043,0.787-0.293,0.971-0.406c0.667-0.41,1.328-1.165,0.558-2.418
				c-0.269-0.437-0.957-1.17-2.062-1.189c-0.479-0.007-0.795,0.203-1.064,0.305c-0.141,0.055-0.646,0.366-0.808,0.465
				c-0.034,0.021-0.044,0.058-0.015,0.104L31.597,13.74z"/>
			<path fill="#FFFFFF" d="M39.687,4.04c2.488-0.978,4.971-0.199,5.949,2.289c0.938,2.387-0.058,5.056-2.721,6.104
				c-3.028,1.191-5.217-0.574-5.973-2.497C36.266,8.214,36.634,5.241,39.687,4.04z M43.056,11.869
				c0.992-0.391,2.783-1.704,1.567-4.794c-1.008-2.563-3.095-3.295-4.841-2.608c-1.847,0.727-2.725,2.406-1.811,4.73
				C38.95,11.685,41.058,12.654,43.056,11.869z"/>
			<path fill="#FFFFFF" d="M50.021,8.342c0.189,0.926,0.344,1.187,0.678,1.211c0.222,0.016,0.49-0.017,0.596-0.036
				c0.054-0.009,0.101,0.024,0.109,0.077c0.012,0.067-0.062,0.107-0.195,0.13c-0.666,0.116-1.138,0.157-1.244,0.176
				c-0.106,0.019-0.592,0.144-1.123,0.237c-0.12,0.021-0.189,0.02-0.203-0.061c-0.01-0.053,0.023-0.1,0.077-0.109
				c0.093-0.016,0.304-0.066,0.467-0.15c0.278-0.131,0.265-0.444,0.087-1.468l-1.131-6.477c-0.078-0.452-0.033-0.583,0.061-0.6
				c0.133-0.023,0.371,0.168,0.512,0.267c0.219,0.154,2.236,1.666,4.371,3.211c1.365,0.995,2.85,2.12,3.273,2.43l-1.107-5.645
				c-0.142-0.729-0.252-0.97-0.623-0.974c-0.219-0.003-0.488,0.03-0.58,0.046c-0.08,0.014-0.105-0.05-0.112-0.09
				c-0.012-0.066,0.079-0.096,0.212-0.119c0.532-0.093,1.096-0.164,1.229-0.187s0.514-0.117,0.992-0.201
				c0.12-0.021,0.215-0.024,0.227,0.042c0.008,0.04-0.034,0.116-0.113,0.13c-0.054,0.009-0.146,0.025-0.275,0.075
				c-0.371,0.147-0.359,0.378-0.24,1.056l1.129,6.627c0.131,0.745,0.129,0.813,0.049,0.828c-0.12,0.021-0.256-0.052-1.012-0.536
				c-0.139-0.085-2.117-1.453-3.58-2.527c-1.604-1.187-3.162-2.34-3.591-2.676L50.021,8.342z"/>
			<path fill="#FFFFFF" d="M64.305-0.257c2.672,0.073,4.652,1.761,4.58,4.433c-0.07,2.564-2.031,4.631-4.891,4.553
				c-3.253-0.088-4.575-2.569-4.52-4.634C59.524,2.247,61.026-0.346,64.305-0.257z M64.344,8.266
				c1.066,0.029,3.227-0.479,3.316-3.799c0.076-2.753-1.559-4.243-3.434-4.293c-1.983-0.054-3.448,1.148-3.516,3.645
				C60.638,6.49,62.198,8.208,64.344,8.266z"/>
			<path fill="#FFFFFF" d="M89.994,12.099c-0.469,1.003-0.84,1.828-0.99,2.279c-0.107,0.323-0.174,0.53,0.133,0.733
				c0.137,0.093,0.369,0.232,0.455,0.272c0.074,0.034,0.074,0.095,0.059,0.131c-0.023,0.049-0.102,0.057-0.225,0
				c-0.586-0.274-1.254-0.631-1.316-0.66c-0.049-0.023-0.762-0.312-1.08-0.46c-0.123-0.057-0.16-0.104-0.131-0.166
				c0.016-0.037,0.064-0.074,0.125-0.045c0.098,0.045,0.23,0.078,0.34,0.1c0.244,0.054,0.377-0.137,0.557-0.426
				c0.25-0.405,0.615-1.188,1.084-2.191l0.484-1.04c0.023-0.049,0.006-0.073-0.031-0.09l-4.49-2.097
				c-0.035-0.017-0.066-0.017-0.09,0.032l-0.484,1.04c-0.469,1.003-0.84,1.798-0.992,2.249c-0.105,0.323-0.16,0.536,0.135,0.733
				c0.148,0.099,0.369,0.232,0.467,0.278c0.061,0.028,0.062,0.089,0.045,0.125c-0.021,0.049-0.088,0.062-0.211,0.005
				c-0.6-0.28-1.268-0.636-1.316-0.659c-0.061-0.029-0.762-0.312-1.092-0.466c-0.111-0.051-0.16-0.104-0.133-0.166
				c0.018-0.037,0.064-0.074,0.127-0.045c0.098,0.045,0.244,0.084,0.352,0.105c0.232,0.048,0.348-0.136,0.539-0.419
				c0.262-0.399,0.645-1.219,1.113-2.222l0.855-1.835c0.756-1.615,0.893-1.908,1.021-2.25c0.143-0.366,0.16-0.566-0.172-0.781
				c-0.08-0.052-0.258-0.15-0.355-0.196c-0.035-0.017-0.062-0.089-0.045-0.125c0.029-0.062,0.088-0.063,0.211-0.006
				c0.49,0.229,1.162,0.573,1.225,0.602c0.049,0.023,0.744,0.318,1.074,0.473c0.123,0.057,0.16,0.104,0.133,0.166
				c-0.018,0.037-0.09,0.063-0.127,0.045C87.174,5.09,87.1,5.056,86.967,5.023c-0.322-0.076-0.453,0.042-0.648,0.398
				c-0.166,0.324-0.314,0.643-1.068,2.257l-0.104,0.22c-0.029,0.061-0.004,0.073,0.033,0.09l4.488,2.097
				c0.037,0.017,0.061,0.029,0.09-0.033l0.104-0.22c0.754-1.615,0.891-1.938,1.031-2.274c0.143-0.366,0.172-0.56-0.158-0.775
				c-0.08-0.052-0.258-0.15-0.355-0.196c-0.051-0.023-0.064-0.089-0.047-0.125c0.029-0.062,0.09-0.063,0.211-0.006
				c0.479,0.223,1.164,0.573,1.213,0.596c0.061,0.028,0.758,0.324,1.074,0.472c0.123,0.057,0.172,0.11,0.145,0.171
				c-0.018,0.037-0.09,0.063-0.139,0.04c-0.072-0.034-0.135-0.063-0.279-0.101c-0.311-0.07-0.439,0.048-0.637,0.403
				c-0.178,0.319-0.314,0.612-1.07,2.227L89.994,12.099z"/>
			<path fill="#FFFFFF" d="M94.701,12.567c1.055-1.437,1.246-1.698,1.439-2.008c0.193-0.31,0.268-0.524-0.018-0.799
				c-0.068-0.067-0.223-0.197-0.311-0.261c-0.031-0.024-0.043-0.1-0.02-0.132c0.039-0.054,0.1-0.044,0.209,0.036
				c0.436,0.319,0.996,0.764,1.082,0.828c0.088,0.064,0.703,0.481,0.986,0.688c0.107,0.08,0.146,0.142,0.107,0.196
				c-0.025,0.032-0.1,0.044-0.145,0.012c-0.064-0.048-0.119-0.088-0.254-0.154c-0.283-0.14-0.457-0.017-0.703,0.272
				c-0.236,0.278-0.428,0.54-1.482,1.977l-0.949,1.295c-0.982,1.339-1.096,2.11-0.953,2.784c0.156,0.768,0.516,1.147,1.059,1.546
				c0.588,0.431,1.346,0.585,1.961,0.432c0.836-0.206,1.494-0.896,2.188-1.843l0.855-1.165c1.053-1.437,1.234-1.707,1.438-2.008
				c0.205-0.302,0.279-0.516-0.006-0.791c-0.068-0.067-0.223-0.198-0.311-0.261c-0.043-0.032-0.043-0.1-0.02-0.132
				c0.039-0.054,0.1-0.044,0.209,0.036c0.424,0.312,0.963,0.74,1.018,0.78c0.064,0.048,0.539,0.361,0.822,0.569
				c0.107,0.08,0.137,0.133,0.096,0.188c-0.023,0.033-0.088,0.052-0.133,0.02c-0.064-0.048-0.119-0.087-0.254-0.154
				c-0.303-0.137-0.469-0.024-0.713,0.264c-0.238,0.278-0.418,0.547-1.473,1.984l-0.727,0.991c-0.734,1.002-1.688,2.027-2.928,2.122
				c-1.135,0.088-1.932-0.379-2.498-0.794c-0.316-0.231-1.301-0.988-1.514-2.114c-0.148-0.778-0.047-1.692,0.941-3.042
				L94.701,12.567z"/>
			<path fill="#FFFFFF" d="M106.66,28.699c-0.273,0.302-0.678,0.78-0.471,1.248c0.146,0.323,0.355,0.552,0.438,0.643
				c0.035,0.04,0.043,0.088,0.004,0.124c-0.051,0.045-0.152-0.007-0.244-0.107c-0.182-0.2-1.051-1.197-1.311-1.544
				c-0.172-0.228-0.178-0.295-0.139-0.332c0.031-0.027,0.078-0.035,0.125-0.003c0.057,0.041,0.195-0.067,0.336-0.232l3.916-4.323
				l-0.018-0.02l-6.262,1.821c-0.533,0.156-0.658,0.179-0.73,0.099s-0.039-0.203,0.117-0.654c0.211-0.611,0.773-2.18,1.033-2.817
				c0.305-0.75,1.088-2.757,1.303-3.225l-0.037-0.04l-4.146,3.146c-0.139,0.108-0.299,0.253-0.438,0.38
				c-0.131,0.118-0.137,0.271-0.049,0.428c0.096,0.186,0.203,0.325,0.258,0.385c0.027,0.03,0.033,0.097,0.004,0.125
				c-0.061,0.054-0.135,0.013-0.225-0.087c-0.301-0.33-0.652-0.777-0.715-0.847c-0.072-0.08-0.484-0.473-0.701-0.712
				c-0.082-0.09-0.117-0.168-0.057-0.222c0.029-0.027,0.096-0.015,0.141,0.035c0.064,0.07,0.129,0.121,0.268,0.233
				c0.312,0.244,0.631-0.027,0.986-0.278l6.129-4.398c0.098-0.071,0.195-0.086,0.24-0.036c0.055,0.06,0.088,0.157,0.033,0.298
				l-2.861,7.451l7.59-2.225c0.115-0.033,0.211-0.047,0.266,0.013c0.055,0.06,0.031,0.173-0.111,0.338L106.66,28.699z"/>
			<path fill="#FFFFFF" d="M116.209,30.799c0.402-0.062,0.488-0.049,0.529,0.021c0.061,0.105-0.059,0.222-0.221,0.456
				c-0.311,0.431-3.449,4.459-4.588,5.965c-0.67,0.889-0.635,1.244-0.576,1.506c0.041,0.179,0.117,0.337,0.178,0.442
				c0.035,0.059,0.053,0.142-0.006,0.176c-0.059,0.034-0.15-0.069-0.217-0.186c-0.09-0.152-0.531-0.91-0.922-1.636
				c-0.104-0.205-0.197-0.369-0.139-0.402c0.045-0.027,0.059-0.004,0.109,0.029c0.059,0.044,0.201,0.102,0.322-0.063l1.74-2.246
				c0.033-0.05,0.037-0.069,0.004-0.127l-1.379-2.369c-0.025-0.047-0.07-0.068-0.143-0.058l-1.926,0.34
				c-0.299,0.049-0.578,0.133-0.754,0.235c-0.197,0.115-0.166,0.331-0.064,0.506l0.055,0.094c0.047,0.082,0.025,0.125-0.021,0.152
				c-0.057,0.034-0.115-0.011-0.17-0.104c-0.143-0.245-0.432-0.826-0.5-0.942c-0.062-0.105-0.395-0.598-0.639-1.018
				c-0.076-0.128-0.094-0.212-0.035-0.246c0.047-0.027,0.109-0.001,0.137,0.046c0.041,0.07,0.141,0.215,0.199,0.29
				c0.33,0.433,0.795,0.428,1.412,0.334L116.209,30.799z M112.744,34.346c0.027,0.047,0.051,0.033,0.09-0.005l2.129-2.597
				c0.117-0.146,0.084-0.205-0.102-0.175l-3.275,0.625c-0.055,0.016-0.07,0.041-0.051,0.076L112.744,34.346z"/>
			<path fill="#FFFFFF" d="M113.865,41.346c-0.885,0.334-1.117,0.529-1.088,0.862c0.02,0.222,0.096,0.481,0.131,0.583
				c0.018,0.051-0.008,0.103-0.059,0.12c-0.064,0.022-0.115-0.045-0.16-0.173c-0.221-0.638-0.338-1.098-0.373-1.2
				s-0.236-0.561-0.412-1.071c-0.041-0.115-0.049-0.183,0.027-0.209c0.051-0.018,0.102,0.007,0.119,0.058
				c0.031,0.089,0.115,0.289,0.223,0.438c0.174,0.254,0.48,0.191,1.463-0.149l6.213-2.149c0.434-0.15,0.572-0.126,0.602-0.037
				c0.045,0.128-0.105,0.394-0.182,0.549c-0.115,0.24-1.287,2.474-2.473,4.827c-0.764,1.507-1.637,3.152-1.875,3.62l5.395-1.995
				c0.697-0.255,0.918-0.403,0.863-0.77c-0.033-0.217-0.109-0.477-0.139-0.566c-0.027-0.077,0.031-0.111,0.07-0.125
				c0.064-0.022,0.107,0.063,0.152,0.19c0.176,0.51,0.336,1.055,0.379,1.183c0.045,0.127,0.199,0.489,0.357,0.948
				c0.039,0.115,0.059,0.208-0.006,0.231c-0.039,0.013-0.119-0.016-0.146-0.092c-0.018-0.051-0.049-0.141-0.117-0.259
				c-0.205-0.343-0.432-0.294-1.082-0.069l-6.361,2.172c-0.715,0.248-0.783,0.257-0.811,0.18c-0.039-0.115,0.01-0.261,0.369-1.084
				c0.062-0.15,1.096-2.322,1.924-3.937c0.914-1.773,1.805-3.496,2.068-3.973L113.865,41.346z"/>
			<path fill="#FFFFFF" d="M118.791,52.368c-1.088,0.202-1.977,0.367-2.432,0.506c-0.324,0.101-0.529,0.18-0.52,0.535
				c0.006,0.178,0.025,0.435,0.045,0.541c0.014,0.066-0.035,0.103-0.074,0.11c-0.053,0.01-0.104-0.036-0.129-0.168
				c-0.119-0.65-0.221-1.414-0.23-1.467c-0.012-0.066-0.188-0.789-0.254-1.147c-0.021-0.12-0.008-0.191,0.059-0.203
				c0.041-0.007,0.098,0.009,0.111,0.076c0.02,0.106,0.072,0.247,0.119,0.349c0.094,0.216,0.314,0.216,0.654,0.194
				c0.473-0.033,1.365-0.185,2.453-0.386l1.992-0.37c1.752-0.325,2.07-0.384,2.424-0.477c0.381-0.098,0.535-0.223,0.541-0.485
				c0.002-0.138-0.012-0.286-0.025-0.366c-0.01-0.053,0.035-0.103,0.074-0.11c0.066-0.012,0.104,0.036,0.129,0.168
				c0.07,0.385,0.18,1.12,0.191,1.187c0.01,0.053,0.178,0.805,0.244,1.163c0.023,0.133,0.008,0.19-0.059,0.203
				c-0.041,0.007-0.104-0.036-0.111-0.076c-0.014-0.08-0.029-0.16-0.08-0.287c-0.125-0.307-0.297-0.343-0.699-0.296
				c-0.361,0.053-0.68,0.112-2.432,0.437L118.791,52.368z"/>
			<path fill="#FFFFFF" d="M118.51,71.785c0.926,0.113,1.062,0.103,1.215-0.368c0.025-0.092,0.062-0.292,0.076-0.398
				c0.006-0.041,0.064-0.087,0.105-0.083c0.08,0.01,0.088,0.065,0.07,0.199c-0.064,0.536-0.189,1.323-0.197,1.39
				c-0.006,0.054-0.07,0.794-0.113,1.156c-0.018,0.134-0.037,0.186-0.117,0.176c-0.039-0.005-0.088-0.065-0.082-0.105
				c0.01-0.081,0.02-0.161,0.01-0.298c-0.016-0.328-0.178-0.443-0.576-0.52c-0.361-0.058-0.695-0.099-1.178-0.157l-1.273-0.156
				c-0.521-0.064-0.533-0.079-0.596-0.236c-0.297-0.798-0.287-1.885-0.203-2.568c0.109-0.898,0.422-2.56,1.693-3.737
				c0.691-0.65,1.994-1.184,3.416-1.01c1.822,0.223,2.996,1.305,3.498,2.427c0.514,1.137,0.449,2.326,0.34,3.224
				c-0.092,0.75-0.328,1.565-0.408,1.786c-0.084,0.234-0.201,0.642-0.238,0.937c-0.014,0.121-0.07,0.141-0.125,0.134
				c-0.16-0.02-0.461-0.124-1.6-0.264c-0.188-0.023-0.234-0.083-0.225-0.163c0.008-0.067,0.076-0.072,0.184-0.059
				c0.15,0.004,0.492-0.021,0.783-0.176c0.465-0.243,1.031-1.084,1.217-2.612c0.088-0.71,0.139-1.574-0.436-2.556
				c-0.439-0.748-1.398-1.354-2.725-1.517c-1.607-0.196-2.861,0.494-3.301,0.861c-0.986,0.832-1.43,1.784-1.562,2.869
				c-0.051,0.416-0.078,0.97,0.059,1.299c0.062,0.157,0.105,0.258,0.32,0.284L118.51,71.785z"/>
			<path fill="#FFFFFF" d="M119.846,77.028c1.713,0.491,2.025,0.58,2.383,0.654c0.385,0.082,0.584,0.069,0.744-0.292
				c0.039-0.087,0.107-0.278,0.137-0.382c0.012-0.039,0.078-0.076,0.117-0.065c0.064,0.019,0.076,0.078,0.039,0.208
				c-0.148,0.52-0.387,1.251-0.404,1.316c-0.023,0.078-0.719,2.462-0.781,2.726c-0.049,0.225-0.07,0.443-0.084,0.538
				c-0.002,0.056,0.023,0.119,0.008,0.17c-0.012,0.039-0.066,0.037-0.119,0.022c-0.076-0.022-0.188-0.125-0.492-0.24
				c-0.1-0.042-0.586-0.209-0.709-0.273c-0.047-0.028-0.102-0.085-0.086-0.137c0.018-0.065,0.078-0.076,0.168-0.05
				c0.078,0.022,0.264,0.061,0.408,0.046c0.203-0.026,0.314-0.12,0.572-0.721c0.08-0.187,0.473-1.507,0.51-1.637
				c0.016-0.052-0.02-0.076-0.098-0.098l-2.998-0.858c-0.078-0.022-0.117-0.034-0.137,0.031c-0.041,0.143-0.471,1.648-0.52,1.916
				c-0.053,0.28-0.088,0.452-0.004,0.603c0.057,0.1,0.105,0.17,0.094,0.209c-0.01,0.039-0.043,0.058-0.109,0.039
				c-0.064-0.019-0.227-0.136-0.584-0.266c-0.213-0.089-0.621-0.234-0.699-0.256c-0.09-0.026-0.199-0.085-0.178-0.164
				c0.016-0.052,0.062-0.067,0.127-0.048c0.104,0.029,0.221,0.063,0.379,0.052c0.166,0.006,0.326-0.061,0.504-0.487
				c0.129-0.3,0.49-1.517,0.547-1.711c0.018-0.065-0.018-0.089-0.057-0.1l-0.922-0.264c-0.375-0.108-1.656-0.489-1.881-0.539
				c-0.748-0.186-0.949-0.019-1.273,1.11c-0.086,0.299-0.242,0.844-0.209,1.176c0.043,0.335,0.193,0.547,0.617,0.738
				c0.121,0.063,0.152,0.1,0.135,0.165c-0.02,0.065-0.113,0.052-0.191,0.03c-0.078-0.022-0.805-0.329-1.02-0.46
				c-0.264-0.16-0.23-0.276-0.104-0.718c0.244-0.856,0.461-1.511,0.607-1.975c0.164-0.473,0.248-0.771,0.297-0.94
				c0.008-0.026,0.07-0.247,0.129-0.497c0.049-0.224,0.111-0.488,0.162-0.669c0.033-0.117,0.078-0.174,0.143-0.156
				c0.039,0.011,0.084,0.052,0.066,0.117c-0.031,0.104-0.033,0.258-0.049,0.365c-0.025,0.232,0.189,0.321,0.498,0.466
				c0.436,0.195,1.305,0.443,2.369,0.748L119.846,77.028z"/>
			<path fill="#FFFFFF" d="M113.746,83.538c-0.863-0.386-1.166-0.411-1.379-0.154c-0.143,0.171-0.273,0.408-0.32,0.506
				c-0.023,0.048-0.076,0.067-0.125,0.044c-0.061-0.029-0.051-0.114,0.008-0.235c0.293-0.608,0.535-1.017,0.582-1.114
				s0.227-0.565,0.461-1.051c0.053-0.11,0.094-0.165,0.168-0.129c0.049,0.023,0.066,0.077,0.043,0.126
				c-0.041,0.085-0.121,0.286-0.15,0.467c-0.055,0.303,0.207,0.474,1.145,0.925l5.922,2.853c0.414,0.199,0.494,0.312,0.453,0.398
				c-0.059,0.122-0.354,0.204-0.516,0.261c-0.252,0.088-2.656,0.848-5.156,1.682c-1.604,0.531-3.383,1.083-3.881,1.247l5.234,2.386
				c0.674,0.31,0.936,0.36,1.154,0.062c0.129-0.177,0.26-0.415,0.301-0.5c0.035-0.073,0.102-0.056,0.137-0.038
				c0.061,0.029,0.033,0.12-0.025,0.242c-0.234,0.486-0.506,0.985-0.564,1.107s-0.203,0.486-0.414,0.924
				c-0.053,0.11-0.105,0.189-0.168,0.16c-0.035-0.018-0.072-0.096-0.037-0.168c0.023-0.049,0.064-0.134,0.098-0.267
				c0.098-0.388-0.098-0.512-0.719-0.811l-6.045-2.942c-0.682-0.328-0.736-0.369-0.701-0.442c0.053-0.109,0.191-0.178,1.025-0.51
				c0.15-0.062,2.414-0.875,4.139-1.438c1.898-0.614,3.744-1.208,4.268-1.361L113.746,83.538z"/>
			<path fill="#FFFFFF" d="M111.678,95.238c1.451,1.034,1.715,1.223,2.027,1.412c0.334,0.205,0.527,0.26,0.799-0.028
				c0.066-0.069,0.195-0.226,0.258-0.314c0.023-0.033,0.098-0.045,0.131-0.022c0.055,0.039,0.047,0.099-0.033,0.208
				c-0.312,0.44-0.781,1.051-0.82,1.106c-0.047,0.066-1.5,2.081-1.645,2.309c-0.123,0.195-0.215,0.394-0.26,0.479
				c-0.02,0.052-0.018,0.119-0.049,0.163c-0.023,0.033-0.076,0.013-0.119-0.019c-0.066-0.047-0.137-0.181-0.387-0.391
				c-0.08-0.074-0.48-0.393-0.576-0.494c-0.035-0.042-0.066-0.114-0.035-0.158c0.039-0.055,0.098-0.046,0.176,0.009
				c0.066,0.047,0.227,0.146,0.369,0.18c0.201,0.044,0.336-0.008,0.779-0.489c0.139-0.149,0.949-1.263,1.027-1.373
				c0.031-0.044,0.006-0.079-0.059-0.125l-2.541-1.81c-0.064-0.047-0.098-0.07-0.137-0.016c-0.088,0.121-0.996,1.396-1.131,1.632
				c-0.143,0.247-0.232,0.397-0.205,0.567c0.02,0.113,0.043,0.196,0.02,0.229c-0.023,0.033-0.061,0.039-0.117,0
				c-0.055-0.039-0.168-0.204-0.461-0.445c-0.172-0.155-0.508-0.428-0.574-0.475c-0.076-0.055-0.16-0.147-0.111-0.213
				c0.031-0.044,0.078-0.042,0.135-0.003c0.088,0.062,0.186,0.133,0.338,0.175c0.156,0.061,0.328,0.052,0.639-0.291
				c0.221-0.24,0.969-1.266,1.086-1.431c0.039-0.055,0.014-0.089-0.018-0.113l-0.781-0.557c-0.318-0.227-1.4-1.014-1.594-1.136
				c-0.643-0.425-0.889-0.335-1.57,0.621c-0.182,0.253-0.51,0.715-0.592,1.038c-0.07,0.331,0.002,0.581,0.336,0.902
				c0.094,0.101,0.111,0.146,0.072,0.201c-0.039,0.055-0.123,0.011-0.189-0.036s-0.648-0.578-0.809-0.774
				c-0.193-0.238-0.123-0.337,0.143-0.711c0.518-0.726,0.939-1.271,1.232-1.659c0.312-0.391,0.492-0.644,0.594-0.787
				c0.016-0.022,0.148-0.209,0.287-0.426c0.121-0.195,0.268-0.422,0.377-0.576c0.07-0.099,0.133-0.138,0.188-0.099
				c0.033,0.023,0.061,0.077,0.021,0.132c-0.062,0.088-0.115,0.232-0.168,0.328c-0.1,0.21,0.072,0.366,0.314,0.605
				c0.346,0.329,1.082,0.854,1.984,1.497L111.678,95.238z"/>
			<path fill="#FFFFFF" d="M106.914,101.45c1.285,1.234,1.52,1.458,1.801,1.691c0.301,0.251,0.484,0.333,0.793,0.088
				c0.076-0.059,0.227-0.195,0.301-0.273c0.027-0.029,0.104-0.031,0.133-0.002c0.049,0.046,0.031,0.104-0.062,0.202
				c-0.373,0.39-0.943,0.945-0.99,0.994c-0.086,0.087-0.758,0.827-1.01,1.09c-0.523,0.546-1.152,1.103-1.893,1.251
				c-0.361,0.065-1.127,0.062-1.701-0.49c-0.613-0.588-0.965-1.412-0.879-2.865c-1.551-0.14-2.871-0.266-3.863-0.265
				c-0.906,0.009-1.256,0.217-1.49,0.403c-0.189,0.138-0.273,0.226-0.32,0.274c-0.047,0.049-0.113,0.041-0.143,0.013
				c-0.049-0.047-0.021-0.114,0.129-0.27l0.514-0.536c0.467-0.487,0.723-0.655,1.045-0.757c0.549-0.183,1.248-0.111,2.338,0
				c0.795,0.069,1.695,0.204,2.096,0.234c0.076-0.001,0.105-0.012,0.162-0.07l1.066-1.072c0.037-0.039,0.037-0.077-0.012-0.124
				l-0.195-0.187c-0.799-0.767-1.441-1.384-1.82-1.672c-0.271-0.205-0.475-0.305-0.766-0.08c-0.131,0.098-0.328,0.265-0.402,0.342
				c-0.057,0.059-0.105,0.031-0.135,0.003c-0.039-0.038-0.031-0.104,0.062-0.202c0.449-0.467,1.002-0.985,1.039-1.023
				c0.01-0.01,0.531-0.613,0.785-0.875c0.084-0.088,0.15-0.118,0.199-0.071c0.029,0.028,0.049,0.085,0.002,0.133
				c-0.074,0.078-0.158,0.204-0.213,0.3c-0.121,0.203,0.016,0.372,0.223,0.645c0.295,0.376,0.947,1.002,1.746,1.769L106.914,101.45z
				 M105.502,101.517c-0.049-0.046-0.098-0.055-0.164-0.044c-0.189,0.062-0.668,0.443-1.033,0.823
				c-0.195,0.205-0.41,0.448-0.471,0.783c-0.086,0.479,0.139,1.124,0.771,1.731c1.031,0.991,2.168,0.997,3.047,0.081
				c0.242-0.253,0.475-0.554,0.541-0.66c0.018-0.058,0.016-0.115-0.033-0.162L105.502,101.517z"/>
			<path fill="#FFFFFF" d="M97.201,107.673c-0.68-0.873-1.236-1.587-1.568-1.927c-0.24-0.24-0.404-0.387-0.715-0.213
				c-0.154,0.086-0.373,0.223-0.459,0.289c-0.053,0.041-0.107,0.016-0.133-0.016c-0.033-0.043-0.016-0.108,0.092-0.191
				c0.521-0.407,1.152-0.848,1.195-0.881c0.053-0.042,0.613-0.53,0.902-0.754c0.096-0.075,0.164-0.095,0.207-0.042
				c0.023,0.032,0.037,0.091-0.018,0.132c-0.084,0.066-0.186,0.179-0.254,0.267c-0.148,0.184-0.047,0.379,0.129,0.67
				c0.248,0.406,0.793,1.127,1.473,2l1.246,1.597c1.096,1.406,1.295,1.662,1.539,1.933c0.262,0.292,0.445,0.372,0.68,0.258
				c0.123-0.062,0.248-0.143,0.312-0.192c0.043-0.033,0.107-0.016,0.133,0.017c0.041,0.054,0.016,0.107-0.092,0.19
				c-0.309,0.24-0.91,0.676-0.963,0.717c-0.043,0.033-0.633,0.528-0.92,0.752c-0.107,0.083-0.166,0.096-0.209,0.042
				c-0.023-0.032-0.014-0.108,0.018-0.133c0.064-0.05,0.127-0.1,0.217-0.204c0.215-0.252,0.168-0.422-0.059-0.758
				c-0.215-0.295-0.414-0.551-1.508-1.957L97.201,107.673z"/>
			<path fill="#FFFFFF" d="M92.873,106.952c0.18-0.017,0.213,0.011,0.375,0.275c0.297,0.482,0.492,0.902,0.58,1.07
				c0.062,0.104,0.076,0.175,0.018,0.21c-0.057,0.036-0.113,0.022-0.162-0.058c-0.049-0.081-0.135-0.219-0.254-0.336
				c-0.6-0.613-1.514-0.399-2.193,0.018c-1,0.616-1.17,1.498-0.717,2.234c0.432,0.701,1.016,0.801,2.322,0.916l0.674,0.061
				c1.594,0.145,2.318,0.523,2.736,1.201c0.707,1.15,0.223,2.398-1.109,3.22c-0.402,0.247-0.842,0.438-1.117,0.528
				c-0.225,0.074-0.305,0.125-0.385,0.174c-0.082,0.05-0.111,0.053-0.146-0.006c-0.029-0.045-0.18-0.396-0.592-1.062
				c-0.092-0.149-0.123-0.225-0.053-0.268c0.068-0.043,0.107-0.004,0.17,0.07c0.082,0.107,0.324,0.322,0.445,0.391
				c0.141,0.072,0.701,0.234,1.609-0.324c0.734-0.453,1.117-1.195,0.693-1.886c-0.383-0.62-0.912-0.786-2.33-0.849l-0.408-0.019
				c-1.746-0.082-2.588-0.499-3.105-1.338c-0.354-0.575-0.518-1.33-0.084-2.247c0.256-0.538,0.846-0.996,1.398-1.336
				C91.709,107.302,92.338,107.01,92.873,106.952z"/>
		</g>
		<path fill="#FFFFFF" d="M62.581,62.297"/>
	</g>
	<path fill="#FFFFFF" d="M57.262,37.568c-0.382,0.067-0.833,0.158-1.26,0.158c-0.854,0-1.868-0.158-2.948-0.158
		c-0.787,0-1.552,0.09-2.271,0.203l0.157-0.607c1.396-0.158,2.024-0.495,2.385-1.71c1.192-4.14,1.845-7.515,2.521-9.967
		c-0.383-0.022-0.607-0.045-0.99-0.045c-1.756,0-3.105,0.292-3.893,0.742c-1.08,0.608-1.71,1.665-1.71,2.812
		c0,0.27,0.09,0.63,0.247,0.833c0.383,0.45,0.721,0.765,0.721,1.125c0,0.45-0.36,0.743-0.743,0.743c-0.697,0-1.17-0.9-1.17-2.092
		c0-2.678,2.362-5.22,6.638-5.22c1.98,0,3.758,0.45,5.377,0.45c0.811,0,1.283-0.248,1.283-0.833c0-0.113-0.068-0.383-0.068-0.698
		c0-0.248,0.271-0.585,0.631-0.585c0.494,0,0.786,0.405,0.786,0.877c0,1.26-1.259,2.048-3.868,2.048
		c-0.541,0-1.125-0.023-1.598-0.068c-0.315,1.147-1.328,5.018-2.836,11.475c0.36,0.045,0.833,0.09,1.215,0.09
		c0.518,0,1.08-0.09,1.553-0.202L57.262,37.568z"/>
	<path fill="#FFFFFF" d="M66.877,36.668c0.361,0,0.924-0.585,1.98-1.417l0.293,0.382c-1.283,1.417-2.588,2.228-3.285,2.228
		c-0.539,0-0.855-0.427-0.855-1.237c0-1.935,1.598-5.333,1.598-6.503c0-0.202-0.156-0.36-0.383-0.36
		c-0.584,0-1.643,0.63-2.609,1.778c-0.766,0.9-0.877,1.552-1.012,2.182l-0.878,3.848h-1.643c0.226-0.833,0.518-1.913,0.811-3.15
		l1.62-7.065c0.359-1.553,0.832-2.79,1.777-3.735c0.943-0.967,2.361-1.552,3.531-1.552c0.631,0,1.035,0.315,1.035,0.81
		c0,0.427-0.383,0.765-1.012,0.765c-0.586,0-1.305-0.202-1.957-0.202c-0.855,0-1.148,0.72-1.508,2.317l-1.215,5.422
		c1.732-1.822,3.531-2.88,4.297-2.88c0.584,0,0.9,0.382,0.9,0.99c0,1.777-1.711,5.085-1.711,7.042
		C66.652,36.488,66.697,36.668,66.877,36.668z"/>
	<path fill="#FFFFFF" d="M76.189,35.296c-1.754,1.665-3.217,2.565-4.611,2.565c-1.08,0-1.574-0.765-1.574-2.228
		c0-3.397,2.406-7.335,5.242-7.335c1.033,0,1.596,0.54,1.596,1.462c0,1.845-2.068,2.857-4.971,4.163
		c-0.068,0.337-0.113,0.765-0.113,1.125c0,0.922,0.225,1.395,0.99,1.395c0.787,0,1.754-0.652,3.082-1.643L76.189,35.296z
		 M75.268,30.256c0-0.585-0.338-1.035-0.9-1.035c-1.035,0-1.979,1.575-2.361,4.005C74.166,32.258,75.268,31.201,75.268,30.256z"/>
	<path fill="#FFFFFF" d="M26.36,53.571c0.248,0.045,0.631,0.112,0.9,0.112c1.777,0,3.307-1.44,3.307-3.24
		c0-1.417-1.146-2.362-2.902-2.362c-3.42,0-6.66,2.475-6.66,5.512c0,0.81,0.315,1.283,0.833,1.755
		c0.271,0.248,0.63,0.495,0.63,0.878c0,0.337-0.247,0.562-0.607,0.562c-0.72,0-1.619-1.125-1.619-2.903
		c0-3.735,3.6-6.525,7.762-6.525c2.768,0,4.5,1.103,4.5,2.925c0,1.755-1.553,3.555-4.365,4.005c0.225,0.45,0.766,1.462,1.35,3.353
		c1.104,3.645,2.633,5.647,4.163,5.647c0.99,0,1.237-0.405,1.598-1.553c0.045-0.18,0.36-0.337,0.585-0.337
		c0.359,0,0.63,0.27,0.63,0.63c0,0.81-0.989,1.913-2.677,1.913c-1.958,0-3.646-1.305-4.973-3.848
		c-1.104-2.115-1.463-4.208-2.048-5.805c-0.112,0-0.157-0.022-0.271-0.022c-0.112,0-0.18,0.022-0.292,0.022l-1.462,5.827
		c0.225,0.022,0.562,0.068,0.899,0.068c0.427,0,0.833-0.09,1.125-0.158l-0.091,0.54c-0.292,0.067-0.742,0.158-1.191,0.158
		c-0.742,0-1.575-0.158-2.43-0.158c-0.721,0-1.418,0.112-2.049,0.248l0.181-0.607c1.26-0.337,1.958-0.473,2.407-2.272l1.53-6.143
		c0.157-0.653,0.292-1.193,0.292-1.35c0-0.315-0.18-0.405-0.494-0.405h-0.18l0.135-0.54c0.99-0.023,1.867-0.203,2.654-0.405
		c-0.135,0.405-0.247,0.877-0.338,1.238L26.36,53.571z"/>
	<path fill="#FFFFFF" d="M40.894,54.561c0,3.217-2.633,6.3-5.288,6.3c-1.598,0-2.61-1.08-2.61-2.857
		c0-3.465,2.385-6.683,5.423-6.683C39.903,51.321,40.894,52.604,40.894,54.561z M34.817,57.171c0,1.755,0.608,2.88,1.576,2.88
		c1.305,0,2.678-2.002,2.678-4.837c0-1.98-0.586-3.083-1.576-3.083C36.235,52.131,34.817,54.066,34.817,57.171z"/>
	<path fill="#FFFFFF" d="M48.14,58.813c-1.688,1.327-3.127,2.07-4.455,2.07c-1.146,0-1.822-0.945-1.822-2.43
		c0-2.115,1.193-4.657,2.836-6.075c0.832-0.72,1.619-1.035,2.677-1.035c1.035,0,1.665,0.405,1.665,1.035
		c0,0.45-0.314,0.765-0.855,0.765c-0.719,0-1.236-0.743-2.024-0.743c-1.417,0-2.542,2.632-2.542,5.197
		c0,1.305,0.428,2.093,1.215,2.093c0.877,0,1.912-0.54,3.06-1.507L48.14,58.813z"/>
	<path fill="#FFFFFF" d="M50.817,60.568h-1.643c0.585-2.542,1.192-4.545,1.463-6.03c0.359-1.845,0.922-4.073,1.664-6.3
		c0.541-1.575,2.678-3.15,4.479-3.15c0.697,0,1.125,0.292,1.125,0.81c0,0.427-0.338,0.765-0.878,0.765
		c-0.765,0-1.485-0.225-2.003-0.225c-1.035,0-1.35,1.327-1.867,3.667l-0.787,3.51c1.35-1.507,2.768-2.317,3.824-2.317
		c0.766,0,1.328,0.607,1.328,1.507c0,0.855-0.676,1.823-1.822,2.408c-1.035,0.54-2.093,0.585-3.128,0.607
		c1.351,0.585,2.272,1.643,2.768,2.812c1.552,3.69,2.362,5.535,4.229,5.535c0.631,0,1.238-0.315,1.238-0.765
		c0-0.157-0.045-0.225-0.113-0.36c-0.09-0.158-0.135-0.27-0.135-0.45c0-0.427,0.315-0.697,0.676-0.697
		c0.404,0,0.742,0.337,0.742,0.9c0,1.058-1.035,2.025-2.61,2.025c-4.59,0-4.882-6.57-7.2-8.73c-0.112-0.112-0.18-0.18-0.292-0.27
		L50.817,60.568z M51.965,55.371h0.202c2.521,0,3.893-0.833,3.893-2.16c0-0.54-0.314-0.922-0.787-0.922
		c-0.676,0-1.732,0.81-3.127,2.317L51.965,55.371z"/>
	<path fill="#FFFFFF" d="M64.607,58.296c-1.756,1.665-3.218,2.565-4.612,2.565c-1.08,0-1.574-0.765-1.574-2.228
		c0-3.397,2.406-7.335,5.241-7.335c1.035,0,1.598,0.54,1.598,1.462c0,1.845-2.07,2.857-4.972,4.163
		c-0.068,0.337-0.113,0.765-0.113,1.125c0,0.922,0.226,1.395,0.99,1.395c0.787,0,1.755-0.652,3.081-1.643L64.607,58.296z
		 M63.684,53.256c0-0.585-0.336-1.035-0.898-1.035c-1.035,0-1.979,1.575-2.362,4.005C62.583,55.258,63.684,54.201,63.684,53.256z"/>
	<path fill="#FFFFFF" d="M66.482,52.041h2.633c0.787-3.353,1.777-5.378,4.23-6.503c0.607-0.292,1.236-0.472,1.936-0.472
		c0.898,0,1.35,0.405,1.35,0.877c0,0.45-0.314,0.788-0.832,0.788c-0.766,0-1.621-0.337-2.184-0.337c-1.057,0-1.799,1.035-2.34,3.307
		l-0.539,2.34h2.902l-0.182,0.787h-2.924l-1.732,6.998c-1.035,4.208-3.645,6.525-6.39,6.525c-0.945,0-1.417-0.405-1.417-0.945
		c0-0.472,0.382-0.765,0.968-0.765c0.404,0,1.169,0.135,2.136,0.135c1.576,0,2.004-0.607,2.588-2.993l2.229-8.955h-2.633
		L66.482,52.041z"/>
	<path fill="#FFFFFF" d="M79.049,58.296c-1.754,1.665-3.217,2.565-4.611,2.565c-1.08,0-1.576-0.765-1.576-2.228
		c0-3.397,2.408-7.335,5.244-7.335c1.033,0,1.596,0.54,1.596,1.462c0,1.845-2.068,2.857-4.971,4.163
		c-0.068,0.337-0.113,0.765-0.113,1.125c0,0.922,0.225,1.395,0.99,1.395c0.787,0,1.754-0.652,3.082-1.643L79.049,58.296z
		 M78.127,53.256c0-0.585-0.338-1.035-0.9-1.035c-1.035,0-1.979,1.575-2.361,4.005C77.025,55.258,78.127,54.201,78.127,53.256z"/>
	<path fill="#FFFFFF" d="M83.057,55.686c-0.496,2.137-0.811,3.397-0.811,3.645c0,0.135,0.09,0.337,0.27,0.337
		c0.361,0,1.373-0.653,2.521-1.755l0.381,0.405c-1.305,1.485-3.082,2.565-3.959,2.565c-0.496,0-0.787-0.427-0.787-0.967
		c0-0.473,0.201-1.755,0.674-3.645l1.193-4.838c0.473-1.912,0.855-3.51,1.867-4.657c0.922-1.035,2.408-1.688,3.779-1.688
		c0.631,0,1.014,0.315,1.014,0.765c0,0.472-0.383,0.81-1.035,0.81c-0.562,0-1.148-0.202-1.912-0.202
		c-1.125,0-1.238,0.99-2.094,4.635L83.057,55.686z"/>
	<path fill="#FFFFFF" d="M88.555,55.686c-0.496,2.137-0.811,3.397-0.811,3.645c0,0.135,0.09,0.337,0.27,0.337
		c0.361,0,1.373-0.653,2.521-1.755l0.381,0.405c-1.305,1.485-3.082,2.565-3.959,2.565c-0.496,0-0.787-0.427-0.787-0.967
		c0-0.473,0.201-1.755,0.674-3.645l1.193-4.838c0.473-1.912,0.855-3.51,1.867-4.657c0.922-1.035,2.408-1.688,3.779-1.688
		c0.631,0,1.014,0.315,1.014,0.765c0,0.472-0.383,0.81-1.035,0.81c-0.562,0-1.148-0.202-1.912-0.202
		c-1.125,0-1.238,0.99-2.094,4.635L88.555,55.686z"/>
	<path fill="#FFFFFF" d="M97.791,58.296c-1.756,1.665-3.217,2.565-4.613,2.565c-1.08,0-1.574-0.765-1.574-2.228
		c0-3.397,2.408-7.335,5.242-7.335c1.035,0,1.598,0.54,1.598,1.462c0,1.845-2.07,2.857-4.973,4.163
		c-0.068,0.337-0.113,0.765-0.113,1.125c0,0.922,0.227,1.395,0.99,1.395c0.789,0,1.756-0.652,3.084-1.643L97.791,58.296z
		 M96.869,53.256c0-0.585-0.338-1.035-0.9-1.035c-1.035,0-1.98,1.575-2.363,4.005C95.766,55.258,96.869,54.201,96.869,53.256z"/>
	<path fill="#FFFFFF" d="M101.445,60.568h-1.643l0.764-2.97c0.744-2.902,1.08-4.522,1.08-4.725c0-0.158-0.09-0.248-0.246-0.248
		c-0.383,0-0.99,0.562-1.732,1.327l-0.338-0.382c1.598-1.71,3.172-2.272,3.713-2.272c0.225,0,0.428,0.112,0.428,0.337
		c0,0.158-0.092,0.54-0.137,0.765l-0.471,1.958c1.326-2.07,2.924-3.578,3.621-3.578c0.451,0,0.766,0.36,0.766,0.72
		c0,0.405-0.314,0.652-0.787,0.81c-0.766,0.27-1.418,0.382-2.318,1.282c-1.754,1.8-1.867,3.42-2.205,4.837L101.445,60.568z"/>
	<path fill="#FFFFFF" d="M26.337,71.306c-2.52,0-4.162,1.215-4.162,2.363c0,0.202,0.045,0.248,0.135,0.405
		c0.158,0.27,0.383,0.495,0.383,0.968c0,0.45-0.293,0.742-0.697,0.742c-0.518,0-0.878-0.518-0.878-1.215
		c0-1.192,0.788-2.475,2.093-3.218c1.822-1.035,3.824-0.607,5.467-0.922c-0.518,0.922-0.967,1.913-1.372,2.903
		c-0.899,2.16-1.552,3.982-1.552,5.67c0,2.183,1.191,3.375,2.699,3.375c2.363,0,4.748-2.16,6.143-6.03
		c0.562-1.552,0.787-2.498,0.787-4.14c0-1.8-0.899-2.79-0.899-3.398c0-0.472,0.315-0.742,0.675-0.742
		c0.787,0,1.283,1.035,1.283,2.902c0,1.935-0.271,3.015-0.833,4.86c-1.598,5.175-4.612,7.988-8.101,7.988
		c-2.182,0-3.577-1.62-3.577-4.005c0-2.542,1.192-5.175,2.745-8.505H26.337z"/>
	<path fill="#FFFFFF" d="M43.401,75.761c-0.473,0-1.17,0.405-1.912,1.058c-1.373,1.215-1.486,2.025-1.688,2.902l-0.879,3.825h-1.642
		c0.067-0.27,0.36-1.305,0.787-3.15l0.99-4.163c0.022-0.067,0.045-0.292,0.045-0.382c0-0.135-0.022-0.27-0.202-0.27
		c-0.248,0-1.013,0.472-1.801,1.327l-0.359-0.405c1.395-1.328,2.588-2.205,3.668-2.205c0.247,0,0.494,0.09,0.494,0.337
		c0,0.067-0.045,0.292-0.045,0.337l-0.494,2.205c1.462-1.62,3.465-2.88,4.297-2.88c0.585,0,0.9,0.427,0.9,1.08
		c0,1.643-1.756,5.04-1.756,6.84c0,0.225,0.068,0.45,0.293,0.45c0.449,0,0.967-0.653,1.957-1.417l0.271,0.382
		c-1.261,1.395-2.565,2.228-3.24,2.228c-0.585,0-0.854-0.45-0.854-1.283c0-1.912,1.574-5.265,1.574-6.48
		C43.806,75.896,43.626,75.761,43.401,75.761z"/>
	<path fill="#FFFFFF" d="M51.917,81.656c-1.395,1.305-2.452,2.228-3.33,2.228c-0.539,0-0.854-0.36-0.854-0.922
		c0-1.035,0.607-3.263,1.665-6.705c0.045-0.18,0.067-0.27,0.067-0.45c0-0.112-0.09-0.225-0.202-0.225
		c-0.496,0-1.059,0.63-1.756,1.305l-0.473-0.382c1.396-1.508,2.656-2.228,3.556-2.228c0.405,0,0.72,0.18,0.72,0.562
		c0,0.427-0.404,1.732-1.035,3.825c-0.562,1.912-0.854,3.172-0.854,3.577c0,0.158,0.09,0.36,0.247,0.36
		c0.271,0,0.9-0.495,1.801-1.35L51.917,81.656z M52.614,70.406c0,0.585-0.473,1.215-1.08,1.215c-0.472,0-0.742-0.36-0.742-0.833
		c0-0.652,0.45-1.192,1.058-1.192C52.322,69.596,52.614,69.956,52.614,70.406z"/>
	<path fill="#FFFFFF" d="M56.93,74.613c0.292-0.135,0.675-0.315,0.9-0.315c0.225,0,0.45,0.248,0.45,0.473
		c0,0.315-0.338,0.472-0.676,0.607c-0.832,1.305-1.484,2.655-1.484,4.433c0,0.81,0.18,1.822,0.428,2.947
		c3.104-2.362,4.432-4.59,4.432-6.232c0-0.675-0.518-1.103-0.518-1.665c0-0.337,0.271-0.72,0.676-0.72
		c0.562,0,0.787,0.495,0.787,1.373c0,3.263-2.745,6.84-6.817,8.775c-0.247-1.755-0.743-3.33-0.743-4.815
		c0-1.552,0.721-3.083,2.184-4.208c-2.205,0.045-3.375,0.473-3.375,1.103c0,0.27,0.247,0.63,0.247,0.945
		c0,0.225-0.202,0.45-0.495,0.45c-0.428,0-0.697-0.36-0.697-0.9c0-1.44,1.484-2.25,4.365-2.25H56.93z"/>
	<path fill="#FFFFFF" d="M68.502,81.296c-1.754,1.665-3.217,2.565-4.611,2.565c-1.08,0-1.575-0.765-1.575-2.228
		c0-3.397,2.407-7.335,5.241-7.335c1.035,0,1.598,0.54,1.598,1.462c0,1.845-2.068,2.857-4.973,4.163
		c-0.066,0.337-0.111,0.765-0.111,1.125c0,0.922,0.225,1.395,0.99,1.395c0.787,0,1.754-0.652,3.082-1.643L68.502,81.296z
		 M67.58,76.256c0-0.585-0.338-1.035-0.9-1.035c-1.035,0-1.98,1.575-2.361,4.005C66.477,78.258,67.58,77.201,67.58,76.256z"/>
	<path fill="#FFFFFF" d="M72.156,83.568h-1.643l0.766-2.97c0.742-2.902,1.08-4.522,1.08-4.725c0-0.158-0.09-0.248-0.248-0.248
		c-0.383,0-0.99,0.562-1.732,1.327l-0.336-0.382c1.596-1.71,3.172-2.272,3.711-2.272c0.225,0,0.428,0.112,0.428,0.337
		c0,0.158-0.09,0.54-0.135,0.765l-0.473,1.958c1.328-2.07,2.926-3.578,3.623-3.578c0.449,0,0.764,0.36,0.764,0.72
		c0,0.405-0.314,0.652-0.787,0.81c-0.764,0.27-1.418,0.382-2.316,1.282c-1.756,1.8-1.867,3.42-2.205,4.837L72.156,83.568z"/>
	<path fill="#FFFFFF" d="M83.498,75.558c0,0.36-0.314,0.743-0.766,0.743c-0.291,0-0.473-0.112-0.629-0.315
		c-0.383-0.495-0.697-0.99-1.238-0.99c-0.518,0-1.146,0.473-1.146,1.238c0,0.518,0.225,1.035,0.584,1.44
		c1.08,1.17,1.98,1.98,1.98,3.263c0,1.53-1.418,2.902-3.555,2.902c-1.777,0-2.588-0.833-2.588-1.845
		c0-0.495,0.359-0.877,0.832-0.877c0.451,0,0.742,0.315,0.742,0.653c0,0.135,0,0.427,0,0.54c0,0.54,0.451,0.877,1.104,0.877
		c1.328,0,2.002-0.788,2.002-1.62c0-0.405-0.27-0.945-0.629-1.35c-0.924-1.035-1.824-1.89-1.824-3.195
		c0-1.328,1.172-2.678,3.084-2.678C82.777,74.343,83.498,74.906,83.498,75.558z"/>
	<path fill="#FFFFFF" d="M88.865,81.656c-1.396,1.305-2.453,2.228-3.33,2.228c-0.541,0-0.855-0.36-0.855-0.922
		c0-1.035,0.607-3.263,1.664-6.705c0.045-0.18,0.068-0.27,0.068-0.45c0-0.112-0.09-0.225-0.203-0.225
		c-0.494,0-1.057,0.63-1.754,1.305l-0.473-0.382c1.395-1.508,2.654-2.228,3.555-2.228c0.404,0,0.721,0.18,0.721,0.562
		c0,0.427-0.406,1.732-1.035,3.825c-0.562,1.912-0.855,3.172-0.855,3.577c0,0.158,0.09,0.36,0.248,0.36
		c0.27,0,0.898-0.495,1.799-1.35L88.865,81.656z M89.562,70.406c0,0.585-0.473,1.215-1.08,1.215c-0.473,0-0.742-0.36-0.742-0.833
		c0-0.652,0.449-1.192,1.057-1.192C89.27,69.596,89.562,69.956,89.562,70.406z"/>
	<path fill="#FFFFFF" d="M92.469,72.633l1.754-0.675l-0.809,3.083h2.271l-0.158,0.787h-2.295l-0.967,3.668
		c-0.27,1.035-0.404,1.89-0.404,2.317c0,0.36,0.111,0.562,0.428,0.562c0.381,0,1.529-0.585,2.812-1.62l0.426,0.495
		c-2.092,1.575-3.555,2.632-4.545,2.632c-0.562,0-0.877-0.45-0.877-1.282c0-0.81,0.225-1.598,0.428-2.408l1.125-4.365h-1.777
		l0.203-0.787h1.754L92.469,72.633z"/>
	<path fill="#FFFFFF" d="M97.193,75.491c1.08-0.72,1.756-1.192,2.16-1.192c0.721,0,2.746,3.78,2.746,7.583
		c0,0.292-0.023,0.495-0.045,0.788c1.17-2.16,1.867-3.96,1.867-5.445c0-0.833-0.383-1.507-0.383-2.205
		c0-0.428,0.314-0.72,0.721-0.72c0.539,0,0.854,0.427,0.854,1.125c0,1.147-0.473,3.645-1.643,6.12
		c-2.43,5.13-5.174,7.785-7.83,7.785c-0.922,0-1.461-0.405-1.461-0.922c0-0.427,0.404-0.788,1.057-0.788
		c0.811,0,1.35,0.292,2.002,0.292c1.328,0,3.578-2.227,3.578-4.567c0-0.855-0.09-1.8-0.248-2.745
		c-0.518-3.127-1.484-4.77-2.295-4.77c-0.291,0-0.922,0.27-1.553,0.72l-0.336-0.495L97.193,75.491z"/>
</g>
<g>
	<g>
		<path fill="#FFFFFF" d="M76.679,3.663c0,0-0.234,2.371,1.188,2.827c0,0-1.162-0.339-2.523,1.721c0,0-0.189-1.547,0.609-2.434
			C75.952,5.777,75.853,4.198,76.679,3.663z"/>
		<path fill="#FFFFFF" d="M123.129,58.167c0,0-2.336,0.479-2.35,1.973c0,0-0.023-1.211-2.393-1.899c0,0,1.422-0.639,2.504-0.142
			C120.891,58.099,122.369,57.536,123.129,58.167z"/>
		<path fill="#FFFFFF" d="M22.325,16.411c0,0,1.92,1.41,3.037,0.419c0,0-0.882,0.828,0.196,3.046c0,0-1.428-0.624-1.784-1.759
			C23.774,18.117,22.366,17.394,22.325,16.411z"/>
		<path fill="#FFFFFF" d="M2.216,53.94c0,0,2.388,0.172,2.839-1.296c0,0-0.334,1.198,1.745,2.528c0,0-1.555,0.24-2.45-0.548
			C4.35,54.624,2.763,54.77,2.216,53.94z"/>
	</g>
	<g>
		<path fill="#FFFFFF" d="M50.521,120.551c0,0,2.555,0.529,3.627,0.512"/>
		<path fill="#FFFFFF" d="M54.831,121.485c-0.033-0.363,0.451-0.299,0.477-0.537c0.027-0.26-0.447-0.146-0.496-0.566"/>
		<path fill="#FFFFFF" d="M54.784,120.309c-0.123,0.152-0.451,0.248-0.453,0.609c-0.002,0.387,0.334,0.498,0.471,0.639"/>
		<path fill="#FFFFFF" d="M54.782,120.848"/>
		<path fill="#FFFFFF" d="M54.644,119.749c0,0,0.504,1.174-0.016,2.193"/>
		<path fill="#FFFFFF" d="M55.149,120.825c0,0,6.283,0.721,6.479,0.648c0.195-0.07-0.076,0.488-0.076,0.488l-6.43-0.941
			L55.149,120.825z"/>
		<path fill="#FFFFFF" d="M62.703,120.801c-0.88-3.357-5.101-4.113-5.101-4.113s0.912,0.123,1.322,1.555
			c0.375,1.316,1.523,2.02,2.824,2.188C62.826,120.571,62.703,120.801,62.703,120.801z"/>
		<path fill="#FFFFFF" d="M62.916,122.51c-0.033-0.361,0.451-0.299,0.477-0.537c0.027-0.258-0.447-0.148-0.496-0.564"/>
		<path fill="#FFFFFF" d="M62.869,121.334c-0.123,0.154-0.401,0.273-0.403,0.635c-0.002,0.385,0.286,0.473,0.421,0.615"/>
		<path fill="#FFFFFF" d="M62.867,121.872"/>
		<path fill="#FFFFFF" d="M62.754,120.848c0,0,0.455,1.174-0.064,2.193"/>
		<path fill="#FFFFFF" d="M63.213,121.836c0,0,6.281-0.521,6.457-0.633c0.178-0.109,0.043,0.449,0.043,0.449l-6.486,0.381
			L63.213,121.836z"/>
		<path fill="#FFFFFF" d="M70.67,121.883c-0.061-0.359,0.428-0.332,0.434-0.57c0.012-0.262-0.455-0.113-0.535-0.527"/>
		<path fill="#FFFFFF" d="M70.537,120.715c-0.113,0.162-0.369,0.316-0.342,0.676c0.025,0.387,0.307,0.438,0.451,0.568"/>
		<path fill="#FFFFFF" d="M70.574,121.25"/>
		<path fill="#FFFFFF" d="M70.354,120.168c0,0,0.592,1.129,0.15,2.188"/>
		<path fill="#FFFFFF" d="M70.924,121.198c0,0,8.086-1.617,9.09-2.689c-0.891,0.951-0.176,1.492-0.176,1.492l-8.898,1.391
			L70.924,121.198z"/>
		<g>
			<circle fill="#FFFFFF" cx="74.395" cy="118.386" r="0.655"/>
			<path fill="#FFFFFF" d="M74.395,118.387"/>
		</g>
		<g>
			<circle fill="#FFFFFF" cx="74.609" cy="123.042" r="0.655"/>
			<path fill="#FFFFFF" d="M74.607,123.043"/>
		</g>
		<path fill="#FFFFFF" d="M50.519,120.512c-1.859-2.496-5.998-0.631-5.998-0.631s1.021,0.334,1.436,0.689
			c0.984,0.848,2.369,0.785,3.617,0.379C50.659,120.596,50.519,120.512,50.519,120.512z"/>
		<path fill="#FFFFFF" d="M54.612,119.704c-0.881-3.355-5.102-4.113-5.102-4.113s0.912,0.125,1.32,1.557
			c0.375,1.314,1.525,2.018,2.824,2.189C54.733,119.475,54.612,119.704,54.612,119.704z"/>
		<path fill="#FFFFFF" d="M70.357,120.143c-0.883-3.357-5.102-4.111-5.102-4.111s0.912,0.121,1.32,1.553
			c0.377,1.316,1.525,2.021,2.826,2.189C70.48,119.915,70.357,120.143,70.357,120.143z"/>
		<path fill="#FFFFFF" d="M62.655,123.053c-0.881,3.355-5.102,4.113-5.102,4.113s0.914-0.125,1.322-1.557
			c0.377-1.314,1.525-2.018,2.826-2.188C62.779,123.282,62.655,123.053,62.655,123.053z"/>
		<path fill="#FFFFFF" d="M54.638,121.93c-0.881,3.359-5.104,4.113-5.104,4.113s0.914-0.121,1.322-1.553
			c0.375-1.318,1.525-2.021,2.824-2.189C54.759,122.161,54.638,121.93,54.638,121.93z"/>
		<path fill="#FFFFFF" d="M70.504,122.372c-0.881,3.355-5.102,4.113-5.102,4.113s0.912-0.125,1.32-1.557
			c0.377-1.314,1.525-2.018,2.826-2.189C70.627,122.598,70.504,122.372,70.504,122.372z"/>
	</g>
</g>
<path fill="#FFFFFF" d="M63.054,62.268"/>
<g>
	<path fill="#FFFFFF" d="M62.525,62.287"/>
</g>
</svg>
