<?xml version="1.0" encoding="utf-8"?>
<!-- Generator: Adobe Illustrator 15.0.0, SVG Export Plug-In . SVG Version: 6.00 Build 0)  -->
<!DOCTYPE svg PUBLIC "-//W3C//DTD SVG 1.1//EN" "http://www.w3.org/Graphics/SVG/1.1/DTD/svg11.dtd">
<svg version="1.1" id="Layer_1" xmlns="http://www.w3.org/2000/svg" xmlns:xlink="http://www.w3.org/1999/xlink" x="0px" y="0px"
	 width="240px" height="240px" viewBox="0 0 240 240" enable-background="new 0 0 240 240" xml:space="preserve">
<g id="Layer_8" display="none">
</g>
<g id="Layer_5" display="none">
	<rect x="12" y="12" display="inline" fill="#FFFFFF" width="216" height="216"/>
	<g display="inline">
		<g>
			<polygon fill="#EB3300" points="78,136.57 78,165 102,165 102,119.857 			"/>
			<polygon fill="#EB3300" points="102,114.984 102,75 78,75 78,131.697 			"/>
		</g>
		<g>
			<path fill="#EB3300" d="M108,90v20.806l3.1-2.158c-0.062-0.29-0.1-0.589-0.1-0.897c0-2.348,1.902-4.25,4.25-4.25
				s4.25,1.902,4.25,4.25c0,0.227-0.033,0.445-0.066,0.663l4.866,3.581c0.587-0.305,1.243-0.494,1.95-0.494
				c0.532,0,1.036,0.109,1.506,0.288l4.244-3.206V90H108z"/>
			<path fill="#EB3300" d="M130.5,115.75c0,2.348-1.902,4.25-4.25,4.25s-4.25-1.902-4.25-4.25c0-0.412,0.077-0.803,0.188-1.18
				l-4.521-3.328c-0.687,0.476-1.517,0.758-2.415,0.758c-0.544,0-1.061-0.111-1.538-0.298L108,115.68V135h24v-21.405l-1.611,1.218
				C130.457,115.115,130.5,115.427,130.5,115.75z"/>
		</g>
		<g>
			<polygon fill="#EB3300" points="162,85.918 162,75 138,75 138,104.049 			"/>
			<polygon fill="#EB3300" points="138,109.062 138,165 162,165 162,90.932 			"/>
		</g>
	</g>
</g>
<g id="Layer_5_copy">
	<path fill="#EB3300" d="M0,0v240h240V0H0z M100,171H74v-32.587l26-18.571V171z M100,114.427l-26,18.569V71h26V114.427z M134,137
		h-28v-21.801l6.681-4.419c0.53,0.207,1.271,0.331,1.875,0.331c0.998,0,2.004-0.313,2.767-0.842l5.065,3.697
		c-0.121,0.419-0.187,0.854-0.187,1.311c0,2.609,2.123,4.723,4.731,4.723s4.727-2.113,4.727-4.723c0-0.358,0.289-0.705,0.213-1.041
		l2.127-1.354V137z M134,107.313l-5.049,3.562c-0.523-0.199-1.249-0.32-1.84-0.32c-0.785,0-1.6,0.21-2.252,0.549l-5.447-3.979
		c0.037-0.242,0.052-0.485,0.052-0.737c0-2.608-2.124-4.722-4.732-4.722c-2.609,0-4.728,2.113-4.728,4.722
		c0,0.343-0.295,0.675-0.225,0.997l-3.78,2.398V86h28L134,107.313L134,107.313z M166,171h-26v-63.154l26-20.144V171z M166,82.131
		l-26,20.146V71h26V82.131z"/>
</g>
</svg>
